<svg xmlns="http://www.w3.org/2000/svg"  viewBox="0 0 48 48" width="32px" height="32px"><path d="M 23.939453 3.2890625 C 23.383314 3.3162865 22.837818 3.5269743 22.402344 3.9140625 L 19.326172 6.6464844 L 16.341797 4.8554688 L 16.339844 4.8554688 C 14.997326 4.0509062 13.178318 4.7223616 12.683594 6.2089844 L 11.417969 10 L 7.609375 10 C 5.6038602 10 4.4060715 12.529371 5.6757812 14.082031 L 8.1933594 17.162109 L 7.3085938 18.755859 C 6.806325 19.659943 6.9548258 20.768925 7.5097656 21.492188 C 8.0464017 22.191593 9.0285617 22.611264 10 22.412109 L 10 23.134766 A 1.50015 1.50015 0 0 0 10 23.181641 L 10 24.25 A 1.50015 1.50015 0 0 0 10.09375 25.076172 C 10.11217 25.427312 10.119974 25.788333 10.146484 26.130859 C 8.9362098 26.93607 8 28.127004 8 29.681641 C 8 31.879723 9.6417857 33.646974 11.738281 34.025391 C 12.95194 37.623959 14.706418 40.606051 17.039062 42.550781 A 1.5004324 1.5004324 0 1 0 18.960938 40.246094 C 18.88942 40.186469 18.820821 40.115211 18.75 40.052734 L 19.169922 39.841797 A 1.50015 1.50015 0 0 0 18.507812 36.990234 A 1.50015 1.50015 0 0 0 17.830078 37.158203 L 16.720703 37.712891 C 16.452238 37.318158 16.195503 36.896352 15.949219 36.451172 L 17.169922 35.841797 A 1.50015 1.50015 0 0 0 16.507812 32.990234 A 1.50015 1.50015 0 0 0 15.830078 33.158203 L 14.707031 33.720703 C 14.530819 33.241537 14.362571 32.749177 14.210938 32.232422 A 1.50015 1.50015 0 0 0 12.638672 31.160156 C 12.424361 31.178996 12.388699 31.181641 12.5 31.181641 C 11.653501 31.181641 11 30.52814 11 29.681641 C 11 28.985331 11.458505 28.432461 12.091797 28.251953 A 1.50015 1.50015 0 0 0 13.173828 26.667969 C 13.1534 26.451433 13.157996 26.218372 13.140625 26 L 17.253906 26 A 1.50015 1.50015 0 0 0 17.740234 26 L 30 26 A 1.50015 1.50015 0 0 0 30.193359 25.988281 A 1.50015 1.50015 0 0 0 32 24.5 L 32 20.832031 C 33.334247 21.116968 34.654475 21.470396 35.953125 21.900391 A 1.50015 1.50015 0 0 0 35.957031 21.902344 C 35.980302 21.910052 36.004086 21.916074 36.027344 21.923828 A 1.50015 1.50015 0 0 0 36.146484 21.957031 A 1.5005379 1.5005379 0 0 0 36.205078 21.970703 L 39.341797 22.599609 A 1.50015 1.50015 0 0 0 39.34375 22.599609 C 41.232743 22.975493 42.88755 20.933077 42.128906 19.162109 L 41.664062 18.074219 L 44.027344 13.685547 C 44.892821 12.079859 43.650543 10 41.826172 10 L 37.582031 10 L 36.316406 6.2089844 C 35.94556 5.0946093 34.829942 4.4390254 33.728516 4.5195312 C 33.361373 4.5463663 32.995617 4.6544369 32.660156 4.8554688 L 32.058594 5.2148438 A 1.5011151 1.5011151 0 1 0 33.603516 7.7890625 L 33.667969 7.75 L 35.076172 11.974609 A 1.50015 1.50015 0 0 0 36.5 13 L 40.988281 13 L 38.679688 17.289062 A 1.50015 1.50015 0 0 0 38.621094 18.589844 L 38.998047 19.470703 L 36.876953 19.044922 C 32.779267 17.690236 28.491719 17 24.175781 17 L 23.958984 17 C 20.19852 17 16.455837 17.525304 12.839844 18.558594 L 12.839844 18.556641 L 11.087891 19.056641 A 1.50015 1.50015 0 0 0 11.082031 19.058594 L 10.488281 19.207031 L 11.310547 17.728516 A 1.50015 1.50015 0 0 0 11.160156 16.050781 L 8.6640625 13 L 12.5 13 A 1.50015 1.50015 0 0 0 13.923828 11.974609 L 15.332031 7.75 L 18.728516 9.7871094 A 1.50015 1.50015 0 0 0 20.496094 9.6210938 L 24.09375 6.4238281 L 27.117188 8.6230469 A 1.5009432 1.5009432 0 0 0 28.882812 6.1953125 L 25.533203 3.7617188 C 25.061618 3.4188603 24.495592 3.261838 23.939453 3.2890625 z M 23.958984 20 L 24.175781 20 C 25.791707 20 27.402269 20.110829 29 20.318359 L 29 23 L 19 23 L 19 20.335938 C 20.642336 20.116759 22.298312 20 23.958984 20 z M 16 20.861328 L 16 23 L 13 23 L 13 21.630859 L 13.664062 21.443359 A 1.50015 1.50015 0 0 0 13.664062 21.441406 C 14.436457 21.220701 15.216354 21.031637 16 20.861328 z M 36.287109 25.302734 A 1.50015 1.50015 0 0 0 35.908203 28.251953 C 36.541495 28.432461 37 28.985331 37 29.681641 C 37 30.52814 36.346499 31.181641 35.5 31.181641 C 35.611301 31.181641 35.57564 31.179036 35.361328 31.160156 A 1.50015 1.50015 0 0 0 33.789062 32.232422 C 33.637099 32.750175 33.469461 33.242136 33.294922 33.720703 L 32.169922 33.158203 A 1.50015 1.50015 0 0 0 31.447266 32.990234 A 1.50015 1.50015 0 0 0 30.830078 35.841797 L 32.068359 36.460938 C 31.823109 36.908659 31.56493 37.324464 31.296875 37.720703 L 30.169922 37.158203 A 1.50015 1.50015 0 0 0 29.447266 36.990234 A 1.50015 1.50015 0 0 0 28.830078 39.841797 L 29.267578 40.060547 C 27.677766 41.45854 25.876386 42.181641 24 42.181641 C 23.631492 42.181641 23.268958 42.153429 22.912109 42.099609 A 1.5001609 1.5001609 0 1 0 22.464844 45.066406 C 22.969995 45.142586 23.482508 45.181641 24 45.181641 C 29.498687 45.181641 33.998942 40.746779 36.273438 34.023438 C 38.364199 33.640222 40 31.875609 40 29.681641 C 40 27.635951 38.609177 25.902679 36.730469 25.367188 A 1.50015 1.50015 0 0 0 36.287109 25.302734 z M 18 28 A 2 2 0 0 0 18 32 A 2 2 0 0 0 18 28 z M 30 28 A 2 2 0 0 0 30 32 A 2 2 0 0 0 30 28 z"/></svg>