<svg xmlns="http://www.w3.org/2000/svg"  viewBox="0 0 48 48" width="32px" height="32px"><path d="M 24 2 C 22.125 2 20.528815 2.7571334 19.503906 3.9101562 C 18.478997 5.0631791 18 6.5416668 18 8 C 18 9.4583332 18.478997 10.936821 19.503906 12.089844 C 20.229271 12.905879 21.306014 13.40211 22.5 13.693359 L 22.5 16.208984 C 21.277894 16.373919 20.070604 16.669664 18.939453 17.242188 L 3.4121094 25.101562 C 2.7289387 25.447407 2.3822329 26.066523 2.2011719 26.730469 A 1.50015 1.50015 0 0 0 2 27.5 L 2 35.351562 A 1.50015 1.50015 0 0 0 1.9902344 35.605469 C 2.0197074 36.473801 2.5154293 37.394331 3.4082031 37.847656 L 18.943359 45.730469 C 22.126551 47.343946 25.872052 47.350703 29.060547 45.746094 L 44.587891 37.933594 C 45.548418 37.449853 46.047744 36.435849 46.013672 35.5 A 1.50015 1.50015 0 0 0 46 35.328125 L 46 27.5 A 1.50015 1.50015 0 0 0 45.767578 26.677734 C 45.56781 26.071069 45.232091 25.510453 44.599609 25.1875 L 29.0625 17.259766 C 27.93179 16.682547 26.722955 16.383634 25.5 16.214844 L 25.5 13.693359 C 26.693986 13.40211 27.770729 12.905879 28.496094 12.089844 C 29.521003 10.936821 30 9.4583332 30 8 C 30 6.5416668 29.521003 5.0631791 28.496094 3.9101562 C 27.471185 2.7571334 25.875 2 24 2 z M 24 5 C 25.124999 5 25.778816 5.3678666 26.253906 5.9023438 C 26.728997 6.4368209 27 7.2083332 27 8 C 27 8.7916668 26.728997 9.5631793 26.253906 10.097656 C 25.795073 10.613844 25.149438 10.958306 24.09375 10.982422 A 1.50015 1.50015 0 0 0 23.90625 10.982422 C 22.850562 10.958306 22.204927 10.613844 21.746094 10.097656 C 21.271003 9.5631793 21 8.7916668 21 8 C 21 7.2083332 21.271003 6.4368209 21.746094 5.9023438 C 22.221184 5.3678666 22.875001 5 24 5 z M 22.5 19.390625 L 22.5 26.5 A 1.50015 1.50015 0 1 0 25.5 26.5 L 25.5 19.396484 C 26.242477 19.541454 27.00299 19.576221 27.699219 19.931641 L 42.578125 27.525391 L 27.710938 35.050781 C 25.363155 36.238662 22.647244 36.234505 20.304688 35.039062 L 5.4257812 27.443359 L 20.292969 19.917969 C 20.991884 19.564219 21.75527 19.532927 22.5 19.390625 z M 14.5 26 A 2.5 1.5 0 0 0 14.5 29 A 2.5 1.5 0 0 0 14.5 26 z M 5 30.595703 L 18.941406 37.710938 C 22.124849 39.335496 25.874236 39.342632 29.064453 37.728516 A 1.50015 1.50015 0 0 0 29.066406 37.728516 L 43 30.675781 L 43 35.373047 L 27.712891 43.066406 C 25.365385 44.247792 22.64559 44.243211 20.300781 43.054688 L 5 35.291016 L 5 30.595703 z"/></svg>